<svg fill="none">

<symbol id="logo" xmlns:xlink="http://www.w3.org/1999/xlink" svg viewBox="0 0 486.04860264778824 79.73186441971383">
    <g transform="matrix(1,0,0,1,90.52860264778828,11.01938213036566)"><svg
            viewBox="0 0 395.52 57.69310015898251" class="logo-text">
            <g><svg viewBox="0 0 395.52 57.69310015898251" height="57.69310015898251" width="395.52">
                <g><svg viewBox="0 0 395.52 57.69310015898251" height="57.69310015898251" width="395.52">
                    <g transform="matrix(1,0,0,1,0,0)"><svg width="395.52"
                        viewBox="4.489999771118164 -35.84000015258789 245.6899871826172 35.84000015258789"
                        height="57.69310015898251" data-palette-color="#467ffb">
                        <g class="undefined-text-0" data-fill-palette-color="primary" id="text-0">
                          <path
                            d="M26.54 0L4.49 0 4.49-35.69 12.06-35.69 12.06-6.25 26.54-6.25 26.54 0ZM62.74 0L54.59 0 52-8.5 38.99-8.5 36.4 0 28.24 0 40.84-35.84 50.1-35.84 62.74 0ZM40.89-14.84L50.19-14.84Q46.6-26.39 46.15-27.91 45.7-29.42 45.51-30.3L45.51-30.3Q44.7-27.17 40.89-14.84L40.89-14.84ZM77.34-10.35L64.23-10.35 64.23-16.46 77.34-16.46 77.34-10.35ZM113.32 0L105.17 0 102.58-8.5 89.57-8.5 86.98 0 78.83 0 91.42-35.84 100.68-35.84 113.32 0ZM91.47-14.84L100.77-14.84Q97.18-26.39 96.73-27.91 96.28-29.42 96.09-30.3L96.09-30.3Q95.28-27.17 91.47-14.84L91.47-14.84ZM147.43-18.19L147.43-18.19Q147.43-9.38 142.41-4.69 137.39 0 127.92 0L127.92 0 117.81 0 117.81-35.69 129.02-35.69Q137.76-35.69 142.59-31.08 147.43-26.46 147.43-18.19ZM139.57-17.99L139.57-17.99Q139.57-29.49 129.41-29.49L129.41-29.49 125.38-29.49 125.38-6.25 128.63-6.25Q139.57-6.25 139.57-17.99ZM176.87 0L169.93 0 161.34-28 161.12-28Q161.58-19.46 161.58-16.6L161.58-16.6 161.58 0 154.82 0 154.82-35.69 165.12-35.69 173.57-8.4 173.72-8.4 182.68-35.69 192.98-35.69 192.98 0 185.93 0 185.93-16.89Q185.93-18.09 185.96-19.65 186-21.22 186.29-27.95L186.29-27.95 186.07-27.95 176.87 0ZM209.53 0L201.96 0 201.96-35.69 209.53-35.69 209.53 0ZM250.18-35.69L250.18 0 240.56 0 225.03-27 224.81-27Q225.28-19.85 225.28-16.8L225.28-16.8 225.28 0 218.51 0 218.51-35.69 228.06-35.69 243.56-8.96 243.73-8.96Q243.37-15.92 243.37-18.8L243.37-18.8 243.37-35.69 250.18-35.69Z"
                            fill="#467ffb" data-fill-palette-color="primary"></path>
                        </g>
                      </svg></g>
                  </svg></g>
              </svg></g>
          </svg></g>
        <g><svg viewBox="0 0 76.90864633465632 79.73186441971383" height="79.73186441971383"
            width="76.90864633465632">
            <g><svg xmlns="http://www.w3.org/2000/svg" xmlns:xlink="http://www.w3.org/1999/xlink" version="1.1"
                x="0" y="0" viewBox="7.258999824523926 5.689000129699707 85.48399353027344 88.62200164794922"
                enable-background="new 0 0 100 100" xml:space="preserve" height="79.73186441971383"
                width="76.90864633465632" class="icon-icon-0" data-fill-palette-color="accent" id="icon-0">
                <path
                  d="M30.487 51.552c-1.02 0-1.984 0.229-2.854 0.634 0.463 0.43 0.756 1.036 0.756 1.716 0 1.299-1.053 2.352-2.351 2.352-0.68 0-1.286-0.292-1.718-0.754-0.4 0.868-0.632 1.832-0.632 2.853 0 3.756 3.044 6.799 6.799 6.799s6.8-3.043 6.8-6.799C37.287 54.595 34.242 51.552 30.487 51.552z"
                  fill="#467ffb" data-fill-palette-color="accent"></path>
                <path
                  d="M81.67 38.557c4.09-4.834 7.106-10.607 8.67-16.953-8.578 9.088-23.557 15.115-40.615 15.115-17.059 0-32.039-6.027-40.617-15.115 1.589 6.446 4.679 12.299 8.868 17.18C11.533 42.914 7.259 50.131 7.259 58.352c0 12.829 10.4 23.229 23.229 23.229 8.184 0 15.376-4.236 19.513-10.63 4.138 6.394 11.328 10.63 19.514 10.63 12.829 0 23.228-10.399 23.228-23.229C92.741 49.98 88.312 42.646 81.67 38.557zM30.487 74.001c-8.643 0-15.649-7.006-15.649-15.649 0-8.643 7.006-15.651 15.649-15.651s15.651 7.009 15.651 15.651C46.139 66.995 39.13 74.001 30.487 74.001zM69.514 74.001c-8.645 0-15.65-7.006-15.65-15.649 0-8.643 7.006-15.651 15.65-15.651 8.643 0 15.649 7.009 15.649 15.651C85.163 66.995 78.156 74.001 69.514 74.001z"
                  fill="#467ffb" data-fill-palette-color="accent"></path>
                <path
                  d="M73.961 56.253c-1.298 0-2.351-1.053-2.351-2.352 0-0.68 0.293-1.286 0.754-1.716-0.867-0.404-1.832-0.634-2.851-0.634-3.757 0-6.802 3.043-6.802 6.8 0 3.756 3.045 6.799 6.802 6.799 3.754 0 6.799-3.043 6.799-6.799 0-1.021-0.231-1.984-0.635-2.853C75.249 55.961 74.641 56.253 73.961 56.253z"
                  fill="#467ffb" data-fill-palette-color="accent"></path>
                <polygon points="50,94.311 43.093,82.586 50,75.164 56.907,82.586 " fill="#467ffb"
                  data-fill-palette-color="accent"></polygon>
                <path
                  d="M48.004 28.341l-15.899-6.125v9.812c5.498 1.509 11.461 2.315 17.62 2.315 4.895 0 9.666-0.511 14.177-1.476V22.217L48.004 28.341z"
                  fill="#467ffb" data-fill-palette-color="accent"></path>
                <polygon points="48.004,26.198 19.375,15.169 48.004,5.689 76.635,15.169 " fill="#467ffb"
                  data-fill-palette-color="accent"></polygon>
              </svg></g>
          </svg></g>
</symbol>

</svg>